<?xml version="1.0" encoding="UTF-8" standalone="no"?><!DOCTYPE svg PUBLIC "-//W3C//DTD SVG 1.1//EN" "http://www.w3.org/Graphics/SVG/1.1/DTD/svg11.dtd"><svg width="100%" height="100%" viewBox="0 0 180 180" version="1.1" xmlns="http://www.w3.org/2000/svg" xmlns:xlink="http://www.w3.org/1999/xlink" xml:space="preserve" xmlns:serif="http://www.serif.com/" style="fill-rule:evenodd;clip-rule:evenodd;stroke-linecap:round;stroke-linejoin:round;stroke-miterlimit:1.5;"><rect x="0" y="0" width="180" height="180" style="fill:#7fffd4;"/><path d="M23.272,82.946c18.657,-12.66 37.313,-11.604 55.97,0" style="fill:none;stroke:#000;stroke-width:10.55px;"/><path d="M34.414,91.193c11.657,-5.058 23.314,-4.636 34.971,0" style="fill:none;stroke:#000;stroke-width:4.29px;"/><path d="M34.414,105.437c11.657,-5.059 23.314,-4.637 34.971,-0" style="fill:none;stroke:#000;stroke-width:4.29px;"/><path d="M34.414,119.437c11.657,-5.058 23.314,-4.637 34.971,-0" style="fill:none;stroke:#000;stroke-width:4.29px;"/><path d="M111.705,91.265c11.473,-4.978 22.945,-4.563 34.418,-0" style="fill:none;stroke:#000;stroke-width:4.29px;"/><path d="M111.705,105.283c11.473,-4.979 22.945,-4.563 34.418,-0" style="fill:none;stroke:#000;stroke-width:4.29px;"/><path d="M111.705,119.061c11.473,-4.978 22.945,-4.563 34.418,0" style="fill:none;stroke:#000;stroke-width:4.29px;"/><path d="M156.456,83.148c-18.543,-12.46 -37.086,-11.42 -55.628,-0" style="fill:none;stroke:#000;stroke-width:10.55px;"/><path d="M156.728,136.564c-18.543,-12.459 -37.086,-11.42 -55.628,0" style="fill:none;stroke:#000;stroke-width:10.55px;"/><path d="M23.272,82.946l0,54.275" style="fill:none;stroke:#000;stroke-width:10.55px;"/><path d="M23.272,42.779l0,65.301" style="fill:none;stroke:#000;stroke-width:10.55px;"/><path d="M100.045,42.779l0,94.442" style="fill:none;stroke:#000;stroke-width:10.55px;"/><path d="M79.242,82.946l-0,54.275" style="fill:none;stroke:#000;stroke-width:10.55px;"/><path d="M156.456,83.148l-0,53.416" style="fill:none;stroke:#000;stroke-width:10.55px;"/></svg>