<?xml version="1.0" encoding="UTF-8" standalone="no"?><!DOCTYPE svg PUBLIC "-//W3C//DTD SVG 1.1//EN" "http://www.w3.org/Graphics/SVG/1.1/DTD/svg11.dtd"><svg width="100%" height="100%" viewBox="0 0 180 180" version="1.1" xmlns="http://www.w3.org/2000/svg" xmlns:xlink="http://www.w3.org/1999/xlink" xml:space="preserve" xmlns:serif="http://www.serif.com/" style="fill-rule:evenodd;clip-rule:evenodd;stroke-linecap:round;stroke-linejoin:round;stroke-miterlimit:1.5;"><path d="M18.819,51.043c23.577,-21.835 47.154,-20.014 70.73,0" style="fill:none;stroke:#fff;stroke-width:10.55px;"/><path d="M32.899,65.268c14.732,-8.724 29.463,-7.996 44.195,0" style="fill:none;stroke:#fff;stroke-width:10.42px;"/><path d="M32.899,89.835c14.732,-8.724 29.463,-7.996 44.195,0" style="fill:none;stroke:#fff;stroke-width:10.42px;"/><path d="M32.899,113.983c14.732,-8.724 29.463,-7.997 44.195,-0" style="fill:none;stroke:#fff;stroke-width:10.42px;"/><path d="M104.284,65.391c14.498,-8.586 28.997,-7.87 43.495,0" style="fill:none;stroke:#fff;stroke-width:10.42px;"/><path d="M104.284,89.57c14.498,-8.587 28.997,-7.87 43.495,-0" style="fill:none;stroke:#fff;stroke-width:10.42px;"/><path d="M104.284,113.335c14.498,-8.586 28.997,-7.87 43.495,0" style="fill:none;stroke:#fff;stroke-width:10.42px;"/><path d="M160.837,51.391c-23.433,-21.49 -46.866,-19.697 -70.299,0" style="fill:none;stroke:#fff;stroke-width:10.55px;"/><path d="M161.181,143.525c-23.433,-21.49 -46.866,-19.698 -70.299,-0" style="fill:none;stroke:#fff;stroke-width:10.55px;"/><path d="M89.118,143.525c-23.433,-21.49 -46.866,-19.698 -70.299,-0" style="fill:none;stroke:#fff;stroke-width:10.55px;"/><path d="M18.819,51.043l-0,93.615" style="fill:none;stroke:#fff;stroke-width:10.55px;"/><path d="M89.549,51.043l0,93.615" style="fill:none;stroke:#fff;stroke-width:10.55px;"/><path d="M160.837,51.391l0,92.134" style="fill:none;stroke:#fff;stroke-width:10.55px;"/></svg>